<svg xmlns="http://www.w3.org/2000/svg" viewBox="0 0 88.1 68"><path fill="inherit" d="M-22.8,66.1h.5c0,0-.2-.2-.2-.2l-.2.2h0ZM-27.1,62.8l.7,1.7.2.2-.2-.3-.7-1.5ZM-28.3,61.8l.2.3h.2l-.5-.3ZM-21.7,64.7h.2c0,0-.2-.2-.2-.2v.2ZM-16,66.2h-.2v.6h.5l-.2-.6ZM-15.4,66.5v.4c0,0,.2,0,.2,0v-.4h-.2ZM-15.1,66.5h-.3l.3.4v-.4ZM-19.4,65.1l-.8-.4.3,1.3,1-.7-.6-.2ZM-17.9,66.1v-.6l-1.5.4v.2h1.5ZM-14.5,66.5v-.2l-.2.2h.2ZM-16.5,65.8l-.3-.3-.7,1.4h1v-1ZM-27.4,61.8h.4v-.3c0,0-.4,0-.4,0,0,0,0,.2,0,.2ZM-24.9,62.8h.6c0,0-.3-.7-.3-.7l-.6.4.4.3ZM-14.9,66l-.2-.5-.2.3.2.2h.2ZM-29.1,60.3v-.2c0,0-1,.2-1,.2v.3l1-.3ZM-9.4,67.3l-.9-.2.9.6,1.4.2-.9-.2-.5-.5ZM-32.1,57.7v-.2l-.2-.2v.2l.2.2ZM-6.5,67.5v-.2l-.6.2h.6ZM-10.1,66l-3.4.5,1.4.6h1.4l.6-1.1ZM-36.6,54.7h-.3c0,0-.6,0-.6,0l.6.5.3-.4ZM-3.5,67.8v-.2h-.2c0,0-.2,0-.2,0l.4.2ZM-2.1,67.5v-.2l-.6.2h.6ZM-.9,67.4l.4-.2-.4-.2-.2.3s.2,0,.2,0ZM.1,66.9l-.6.2.6.3v-.6ZM-37.3,51.9h-1.2c0,0,1.6,1.4,1.6,1.4l-.3-.8v-.6ZM.2,66.9l.2-.4h-.2v.4ZM4.7,65.3l-3.1,2.2h.8c0,0,2.6-1.4,2.6-1.4l-.2-.8ZM9.1,65.1l-.4.2v.2h.2c0,0,.2-.4.2-.4ZM6.6,66.1l-1.7.2h2.4l1.6-1.6-1.8-.2.6,1-1.1.6ZM12,64.6l-.6-.2-.2.2h.6c0,0,.2,0,.2,0ZM9.9,64.1l-.3-.2v.6h.7l-.4-.4ZM10.7,63.9h-.3l.2.6.4-.2-.2-.4ZM17.8,64.5l-.3-.2v.2h.3ZM17.1,64.1l-.2-.2.2.6v-.4ZM83.1,56v.3l.6.2-.2-.6h-.3ZM24.8,62.8v.5l.2-.2-.2-.3ZM18.5,62.5v-.4l-.5.2.5.2ZM86.3,55.1v-.5l-.5.5h.5ZM15.1,61.5l-1.8.4-1,1.4,4.2-.2v-.4c0,0-.6-.2-.6-.2l-.2-1s-.6,0-.6,0ZM24.8,62.5h-.3v.3h.3v-.3ZM19.5,61.8h-.4l.2.3.5-.2-.2-.2ZM82.7,55.1v.6h0l.4-.2-.5-.4ZM20.5,61.5h-.3l.3.2v-.2ZM24.5,62.1v-.3l-.4.7.4-.4ZM82.1,55.7v.6l1.4.6-1.4-1.3ZM85.8,54.2l-.3-.2h-.3c0,0,.2,1,.2,1l.5-.8ZM23.7,61.9l-.8.2v1c0,0,1-1,1-1l-.2-.2ZM81.4,55l-.2.2.2.4.4-.2-.3-.3ZM22.7,61.2h-.2l-.2.2.4.3v-.6ZM21.9,61.4v-.5l-.4,1.1.7-.2-.3-.5ZM84.1,53.5l.6.9h.2v-.6l-.8-.3ZM80.7,54.7l-.2.6.5.2.2-.8s-.4,0-.4,0ZM22.9,60.6l-.2.3.6.2v-.2l-.3-.3ZM81,54.6l.2-.2h-.4v.2h.2ZM81.3,54.4v-.2h-.3l.3.2ZM80.3,54.4v.3h.2c0,0-.2-.3-.2-.3ZM25.3,59.9v-.2h-.2l.2.2ZM80.3,53.3l.2.3.5-.3h-.6ZM26.3,59.3h-.4v.4h.6l-.2-.4ZM81,53.1l-.2.2h.2v-.2ZM78.7,53.3l-.2.2h.4c0,0,0-.2,0-.2,0,0-.3,0-.3,0ZM33.4,60.1v-.4h-.2l-.4.4h.6ZM79.7,53.3l-.2-.2v.2h.2ZM84.9,51.1l-.8,2.2,1,.3v-1.1l.9,1.4v-1.9l-1.1-.8ZM80.3,51.8l-.6.4v.9l.7-.6-.2-.6ZM81.9,51.1v-.4l-.2.8,1.4.3-.4-.7s-.8,0-.8,0ZM79.7,51.2v.6h.6l.8,1-.2,1,.8-.3v1.4c0,0,1-.2,1-.2l2.2,1.7-.8-2.2-1.6-.2.2-.6,1,.2-4-2.3ZM81.4,50.5l-.4.2-.2.2.6.2v-.6ZM82.5,50.5l-.6-.3,1.2,1,.2-.2-.8-.4ZM36.8,57.3l-.3-.2v.2c0,0,.3.2.3.2v-.2ZM30.1,57h-.4l-.2.2h.8l-.2-.2ZM35.7,57l-.6.8.6-.5v-.3ZM36.4,57l-.3.2-.2.2h.4l.2-.3ZM3.5,53.1v.2h.6l-.6-.2ZM80.5,49.1l.2,1.2h.4l.2-.6-.9-.6ZM78.3,49.8l-.7.4,1.3,3v-2.6c0,0-.6-.7-.6-.7ZM78.3,48.7l.9,2.2,1.1-.2-.9-1.5,1,.7-.2-1.2h-2ZM38.4,54.7l-.6.4.2.4.9-.6-.6-.2ZM3.3,50.7v-.2l-.8.2.3.2.5-.2ZM74.6,49.1h-.6l.4,1.2.6-.2-.3-1ZM74.9,48.5l.7,2.2,1,.2,1,1.8-.6-1.9-1.1-2-1-.2ZM39.7,51.7l-.2.2h.4c0,0,0,0,0,0l-.2-.2ZM38.2,51.9l-.5-.2-.2.2.6.4v-.3ZM39.2,51.8v-.2c0,0-.2,0-.2,0v.2s.2,0,.2,0ZM38.7,51.8l-.6-.3.6.7-1,.9-.9-.6.5,1.9-.2-.2-.3-.3v-.6h-.4v-.2c0,0-.2-.2-.2-.2l-1.2,1,1,2.1.3-1h.7l-.7,1.4,2-2.5,1.1.2-.6-.6,1.4-.2-1.7-1.4ZM72.2,46.8l-.3-.3.3,1.1v-.8ZM38.2,51.1h-.3c0,0,1.1.4,1.1.4h-.3l-.2-.4s-.2,0-.2,0ZM41,50.9l.2-.2v-.2l-.2.4ZM73.3,45.7l-.6.8-.5-.6v.2c0,0,1,1,1,1l-.8-.3v.8l1.5,1.1.4-.2-.8-1.1,2.3.8-.6-1.1-2.1-.6,1.9.3v-1l-1.6.6-.2-.8ZM39.2,50.5l-.2-.2h0v.2h.3ZM75.9,44.7h-.2l-.3.2.8.2-.2-.3ZM74.9,44.7l2,3.2-.2,1.6,1.3-1.7-1.8-2.4,1.8,1.4-1.6-1.8-1.4-.3ZM39.2,50.5l-1,.5,1,.7,1.7-1.4-1.6-.6-.3.4.2.2s0,.2,0,.2ZM39.5,49.8l.2-.6h0c0,0-.4.3-.4.3l.2.2ZM22.9,48.3l.4-.5-.8.6.4-.2ZM39.9,47.9h0c0,0-.2.2-.2.2l.5-.2s-.2,0-.2,0ZM43.1,46.3l.2-.2-.2-.2-.2.5s.2,0,.2,0ZM37.9,46.5v-.4l-.3.2v.2h.3ZM43.9,45.7h-.2v.2h.2v-.2ZM53.5,41.5v-.5l-.4.5h.4ZM13.8,40.2h-2.8c0,0,2.3,2.5,2.3,2.5l1.2-.8-.7-1.7ZM50.7,41.4v.7l.7-.6v-.2l-.3.2-.4-.2ZM40.3,42.4l.6-.5-.3-.2-.4.7h.2ZM2.3,37.9l-1.1-1.4.4,1,.7.4ZM51.5,41l.8-.5v-.2l-1.1,1,.3-.3ZM47.9,40.3v.5l.2-.2-.2-.2ZM47.7,40.8v-.5h-.3v.2l.3.2ZM49.5,39.7h-.3l.3.2v-.2ZM47.8,39.7v.3c0,0,0,.2,0,.2l.2-.2-.2-.3ZM8.5,27.8l-.2-.2-.4-.3.6.7v-.2ZM22.3,28.8h-.3l-.2.3h.6c0,0,0-.3,0-.3ZM7.8,26.3l-.9-1.2-.6,1.5.6.6.7-.6h.2l.9,1.1-.2.3.8.4.3.7,1.6-.7-2.3-2.4-1.1.2ZM15.9,19.1l.6-.2v-.2c0,0-.6.5-.6.5ZM16.7,18.5l.7-.6h-.2l-.6.6ZM18.9,17.5l-.3.2h.2v-.2ZM19.1,17.5l.8-.3h.2c0,0-1,.3-1,.3ZM41.7,45.1l.6-.4-.5,1.1-1,.2.2,1,1.4-.2.6-1.4,1.3-.4v-.6l.6.5v-1.2l.3,1,.2-1.8.3,1.2,1.5-.6v-1.2l.8-.6h-1.4l.4-.3.6-.3-1.2-.8,1.6-1.9v1.7l.4-1.1.6.8,1.8-1-.8,1h1.2l-.8.6,1-.3-.3.4h1.4c0,0-.2.5-.2.5l-.2.2,1.1.5,1-1.8-.2,2,1.5.6,4.9-.6.4-.6.2.6v.4c0,0,1.9.2,1.9.2l1.4-1.8,1.3.8-.6,1-.6-1.5-.4,1.9,7.4,3.6.9-1.3-1.5-1.4-1,.5v-1l2,1-.3-1.3.9.3.2,2,.9-.4,1,.4-1.9-4.3,2.3,3.6h.6l.7.5.3-1.5v1.8l.6-.2.6,1.2v-.6l1.5,1-.2.3-1.1-.5-.2.2,1.5.6v.2l-.2.5h-.6v.5l1.7-.2,1,1.4,2.6,1v.2l-.9.2.3,2.3,1.7-2.8,1.8,2.8-.4.6.6-1-.2,2.2,1.2-1.2-1.2-4-4.2-.7-5-5.7-5-3.6-1.8.9-.3,1.9h-.2c0,0-1.1,1.4-1.1,1.4l-4.4-3.9v-1l-3.4.7-7.1-35.1-3-1.3-2.5,1-6.2-1.5-2.2.5-1.9-.3.8-.2-.3-1.1-2.5.3-1.1-1.4-1.2,1.4-.3-.4.7-1-1-.9-1.9,2-3.1.6,1.2.6-.8,1.2-.6-.7.4-.9-3,1.4.2-.7-2.7,4.3-3.9.2-.8,1.8,3,3.4.4,2.1h2.2v.3l-.2.6,1.4.2-.2,1.5,1.9-.2v1l-2.2-.4-.9-2.1.3,2.7,1.1-.2.2.9-4.2-.2-.7-.6,1-1.4h0c0,0-.8,0-.8,0l-2.4.6.3.8-1.5-.2-2,1.3h-1.2l1.2,1.2,1.8,1-1.3-.2v.5l.6,1v1.4c0,0,5,1.4,5,1.4v-1c0,0,.5,1.4.5,1.4l2.9-2.2.6,1.1-1.3,1,1.2,2.2-1,1.2-1.8-.3-3,1.9.2-.8-1-.2v.6l-1.4.6.3,1.6-.9-.4-1.2,2.4h-1l.6,2.7.8-.9,1-.6-.4.4h-.2v.2h-.4v.6c0,0-.4,0-.4,0l1,.6-.7.7h.4l1.6.4.6-.3-.3.6.9.4-2,.3.2-.5-.6-.5-.3-.4-1.3,1.3,3.1,3.2,1.9-.3v-1.1c0,0,1.5-1.4,1.5-1.4l-1.2,1.4,1,3.4-.6.6.3.8h.5l-.2,1.1-1.3.6,1,.3,2.9-1.7,2.7,3,.9-3,.6.6.2.6-.3-.6-.5.2.5,1.3,2.9-1.8-.3,1.4-1.3,1.7.9.7h-.9c0,0,0,2.4,0,2.4l-1.8.6-.9,2.1-.5-.5-3.4,2.2v2l-1-.6v.6l-.6-1.2-1.5.2-3.8,2.7-.2.9.6-.2v-.6c0,0,1,.6,1,.6v-1.4l.6,1.3h1.1l.8-2,1.3.4-.5.6,3.2-1.7.3,1,.3-1,2-.2.2-.8h.2v.7l.7-.7-1-.4.6-.6,4-1.8v-1.6l4.6-2.7,2.2-2.9-2-1.2,1.6-2.4.4.4,1.1-1-.8-1.4h.5l.4.2.2-.2,3.4-4.1,1.2.2,1.4-1.3-1.4,1.7,1.9.7-2.7-.3-1.7,1.1-.7,3.9v.3c0,0,.8,0,.8,0Z"/></svg>