<svg xmlns="http://www.w3.org/2000/svg" viewBox="0 0 59.3 66.4"><path fill="inherit" d="M34.7,64.8l-1.2-1.8h-.2l.8,1.7h.6ZM27.7,61.7h-.3l.8.3v-.2h-.5ZM34.7,60.6l-1.5-.3,1,1h.6l-.2-.6ZM24.5,56.6h-1.2l.6,1,.8-.5-.2-.5ZM22.9,56.4l-.5-.2-.3.2.8.2v-.2ZM25.8,56.2h-.7c0,0,.9.6.9.6l1.5-.5-.2-.2h-1.5ZM23.6,7.7V0H1.1v1.4c0,0,.3.7.3.7l.6,1.8-1,4.8.5-.6-1,1-.6,1.9v1.4c0,0,2.2,1.8,2.2,1.8l1,2.1-.3,2.2.6,1.9v1.2l3.3,3.4,1.5,2.5-.8-.7-.2,1.7.4-.6,2.3,1.8.4-.4-.4-1.8h.7c0,0,1.3.7,1.3.7l.8-.7.6.7,1.3-.7-.4.7.9-.6,1,.7-1.2-.7-.2.7h-3c0,0-.8,0-.8,0l-.2.3.5,1.2.7.6.9,1.9h-.6l-1.4-1v-1.4c0,0-.8.2-.8.2v1.8l1.2,2.8,1,1.2h1.3l.8.9-.4,1.4-.6.2.5,2.2,2.1,2.1,1.4,2.3,2.2,1.7v1.4l1.5.4v4.3l.8.5,5.2.3,1.9,1,1,1.2,1.9.6,1.8-.2.7,1.9h1.5c0,0,3.8,2.5,3.8,2.5l1.4,1.9.5,2.9.7-.3.2.5-.6-.2.6,1,15.5-2.7v-1.7c0,0-1.1-.6-1.1-.6l-.7-2.4,1.2-1-.2-3,2.2-2.7-1.5-1-2-3.5-31.9-26.7-.2-13.5Z"/></svg>