<svg xmlns="http://www.w3.org/2000/svg" viewBox="0 0 86.1 61.6"><path fill="inherit" d="M32.9,1L11.3,0l-3.1,45,2.7,4.6L0,56l3.4,5.6,2-1,.8.8,2.6-1.4.3.5.8-1.6h1.4c0,0,5.7-3.5,5.7-3.5l2.6-1.4,1.5.5,1.4-1.8.6.3,2-1.4,1,1.1,1.3-.6,3.2-2.5,1.8-.4,4.3-5.1.2,1.8.9,1.1h3.4l2.9-.6,2.2.6,1.3-.8,2.6-.6,2.8,1.1.9-.3.6.6,2.4-1.8,3.8.6,1-.7-.8-.6.6-1.3-1.8-2.5,2.2,1v2.2l2.6,1.6,2.8-1.7,1.2.6.4-1.6,3.7.9,1.1-2.5,2.1,2.1,3.2-1.5h3.5l1.1.6-.6,1,1.4-.5.6-4,1-1.4.4-6.4-.6-29.8-42.3-.2v1.3c0,0-1.9.2-1.9.2l-.2-1.4-8.1-.5Z"/></svg>