<svg xmlns="http://www.w3.org/2000/svg" viewBox="0 0 64.8 65.1"><path fill="inherit" d="M49.8,64.8l-.6.2h-.2c0,0,.7,0,.7,0v-.3ZM50.6,64.8h-.5c0,0-.3.3-.3.3l.8-.3ZM52.4,64.1v-.3h-.2v.2h.2ZM51.5,63.8l.2.4h-.6c0,0-.5.6-.5.6l1.1-.6-.2-.4ZM52.1,63.8h0c0,0-.2,0-.2,0v.4l.3-.3ZM55.7,63.7h.3v-.3l-1,.2h.7ZM53.2,64.1l-.2-.5-.3-.3.4.9h0ZM57,63.3v-.6c0,0-1,.9-1,.9l1-.3ZM58.1,62.6v-.3l-.6.4h.6ZM59.5,61.5l.3-.3-.4.3h0ZM55.9,57.8v-.3c0,0-.2,0-.2,0v.3s.2,0,.2,0ZM55.7,57.4h-.4l.3.2v-.2ZM62.1,59l1-1.9-1,.6v.6l-2.1,2.8h.2l1.8-2.2ZM63.4,56.4l.2-.3v-.2c0,0-.3.6-.3.6v-.2ZM63.8,53.8v-.4h0v.4c0,0,0,0,0,0ZM53.1,52.7l-.4-.6-.3.2v.3h.7ZM52.2,52.1h-.4c0,0,.4.4.4.4v-.4ZM50.6,52h-.5l.2.2.3-.2ZM51.7,52.1h0c0,0-.2-.3-.2-.3v.4h.2ZM46.5,46.2l-.7-.7.4.7,1,.2-.7-.2ZM46.8,45.8l-.3-1.7h-.6c0,0,.7,1.4.7,1.4l.2.2ZM45.4,43.5l-.2-.5v.9l.2-.4ZM42.4,37.6l-.6-1h-.2l.8,1s0,0,0,0ZM63.7,39l-1.6-5.1-.8-1.4,1.4,4.2,1,2.3ZM59.5,25.6v-.5c0,0-1,.9-1,.9l.9,2.9v-3.3ZM41.6,23.7v.2h.2v-.2h-.2ZM41.6,23.5h.2l-.2-.2v.2ZM38.7,19.8v-.3c0,0-.2.2-.2.2h0c0,0,.2,0,.2,0ZM21.1,13.9h-1l.6.5.3-.5ZM22.2,14.6l2.5-1.4-2.7,1.4h-.8l.5.3.6-.2ZM25.3,13l.4-.4-.9.5h.5ZM8.8,6.3h.3l-1.4-.2-5.2.6h.4l5.9-.3ZM44.3,32.8l-1.9,2.7h.2-.6c0,0,.5.5.5.5h-.8l.2.2-.6-.5.3.5,1,.7v1.1c0,0,2.2,4.5,2.2,4.5l1.4.4-1-2.4,1,1,1.8-.6-1.1.9.2,3.6h1l.3-1,1-.5-1.8,2.2,1,.2v-.6l.2.6.6,3.6v-.5l.5,1.2.8.2-.8.7,1-.3,2.4,1.1,1.5,2.6.3,1.8,2.1,1.3-.8.2h.3l-.9-.6-.4-.5-.6,1,.3.7.7.6,1.8-.8,1.4.3,1.9-.9v.5c0,0,.6.2.6.2v-.5c0,0-.5-.2-.5-.2h.5c0,0,.4.5.4.5l-.2-.6.9-1.2.3-2.6,1.1-2.8v1.4l1-10.2-1-3.2-1.5-1,1,.3v.2l-1.3-3.1-.3-1.8-3-6.9-1.3-4.1,1,.4v1.4c0,0,1.4,0,1.4,0l-.3,3.8,1.8,3.5-1.4-3.5v-1.8l.6-.6-1-1.8-2.5-4-2.8-7.3-1.2-6.7-1-.6v-.8l.6,1v-1.8l-4.7-1-.6.5v3.8h-1c0,0-.7-1.9-.7-1.9l-22.5-2-1-2.8L.2,0l-.2,1.4,1.8,1.8-.4,1.6.6.6-1.5,1.8,2.2-.6,1-1.3-.3-1,1,1.1.4-1.4.5.6-.4.5,1,.7-2.6.9,3.7-.5,1.4.2.8-1h.8v.6l1.6-.5.6.4.3,1-1.1-.6v.6l-.4-.6-.6.5-1.4-.3,3.8,1.4,2.9,1.6-.3-1-.7-.2.7-.4.6.5,1.1-.5.2.4-1.6.7,1.4.8.6-.3v1.3c0,0,.9-.2.9-.2l-.6.3-1.9-1.4,2.7,2.7.3.7-.3,1.3-.7-1.8.5,1.4.2.5,2.9-.3,1.3-.6-.2.5,3.3-1.5,1.1.2.2-.2v-.3l-1-.4v-.3c0,0,1,.3,1,.3l-.5-.6,1.8-.6.3.5,1.4-.3,2.9,1.8,1.1,2,1.3.6-.2,1.3,1.5,1.1,1.5,2.5h2.2l.6,1.9.7.9v1h-.6c0,0,.6.7.6.7l-.4,2.6-1.7,5.5,1,2.1v-.5l-.6-1,1.3,1.2.8-1.6-1.2-.6.5-.3h-.3v-.5l1.3.6v1.4h.7v-1h.4l.3,1ZM58,39l1.1,1,.4,1.2-.7,2.9-1.4-.7-1.8-1.9,2.4-2.4Z"/></svg>