<svg xmlns="http://www.w3.org/2000/svg" viewBox="0 0 52.4 61.6"><path fill="inherit" d="M45.5,56.8v-.9l.5-2.1-.9,1,.4,1.9ZM6,34.1l-.2,1.1,1,.9-1.5,1.4-1.4,4.6,1.1,3.7-.9,4.7.9,1.3.2,1.5,1.4,3.4,29.9,2.3.8,2.6h1.4c0,0,.5-2.8.5-2.8l-.3-2,.7-1.1,5.4,1.4-.3-1.8h.5c0,0-.2-.8-.2-.8l.6-.6-.6-.4.6-.4-.6-.9,1,.9.2-1.4-.4.7-.5-.7.4.2v-1.2h.3c0,0,.6.9.6.9l1.1-1.4-.6-.9-1.8-.6,2.4.4-.6-1.2.6.5,1.2-2.1-1.4.7.2-.6-.6-.2,1.4-.6-.5-.6.9,1,.2-1.4v-.4.4c0,0-1.1.2-1.1.2l.5-.6-.9-.7,2,.3.8-1.2-1.3-.2.6-.4-.3-.3,1.6.4.5-.4-.4-.5.4-.5.4.2.7-.6-3.4-1.7v-2.5l-.6-2.1-2.3-1.8v-1.7l-1.4-3.9-2.6-1.4-.2-1-.9-.4.2-.7-1-.6v-1.4l-2.8-1.8-1-2.2-3.3-2.6-1.7-2.7-1.7-3.8-1.8-.6-1.4-1.4-1.8-1.4.3-1.4,2.2-2.3L0,0l3.7,27.3.9,3.8,1.4,3Z"/></svg>