<svg xmlns="http://www.w3.org/2000/svg" viewBox="0 0 36 64.8"><path fill="inherit" d="M33,.4l-24.4-.4,1.7,1.8.2,1.4,2.1,1.7-.3,3.1-2.3,3.4-2.2,1.1-3,.2-.6,2.1,1,1.4.2,1.7-2,3.4-2.2,1.1v2.2c0,0-.9.4-.9.4l-.3,1.1.2,3,1,3.4,5.2,5.3,1,4.3.6.4,1.4-.9,2.6,1.3-.4,2.6-1.8,3.5v1.4c0,0,2.2,2.4,2.2,2.4l1.8.7,3.8,3.4v1.7l.5,1.6-.5,1.4,1,2.5,1.1.6-.3-.7.4-.2,1,1.2h.4l-.5-1,1.7-1.8,4.4,1.8.7-.2-.3-3.5,3.6-1.2-.6-1.7,1-1.5-.5-.7h.5l-.5-.8h.5v-1.8l.9-.3-.6-.2.9-.9-.7-.7.6-.9.7.3,1-2.1,1-.5-.2-.7,1.4-2.4-.2-2.2-1.4-1.9.8-1-.3-1.4.9-.3V9.4c0,0-2.7-5.9-2.7-5.9,0,0,0-3,0-3Z"/></svg>