<svg xmlns="http://www.w3.org/2000/svg" viewBox="0 0 42.8 64.8"><path fill="inherit" d="M42.2.9V0h-25c0,0-2.4,1.2-2.4,1.2l-3,.8-1.6-.3v-.9c0,0-.5.4-.5.4l-.9-.9-.9,38.6-1.1.6.2,1.9-.8,1.4,1.6,2.6-.2,1.4.5,2-2.1,3v1.3c0,0-1.4.5-1.4.5v.6c0,0-1,2.1-1,2.1l-.2-.3-.5.6-.5-.3-.7,1.1.7,1-1.2,1,.8.3-.9.4v2.4l-1,.2,1,1-.9.3,1.8.5.6-.7-.2-1.1.2-.4,1.4.6,1.6-.2v1.1h.6l.5-1v-1.3c0,0,.4.9.4.9l1.9-.4,3.4,1.8.5.8,1.4-2.2,2.6-1.2.5,1.2,1.6.4v.5c0,0,.3.4.3.4l.5-1,.9-.3v-1.8c0,0,.9-.4.9-.4v-1.3c0,0,.4.7.4.7l1.3-.8-.9-.6,1.4.6.3,1.5,2.7,1.8,1.5-1.1.3-2.5,1-1.8.8.3,1.4-.7.8-2.4,1-.2,1.3-1.5-.5-2.6,2.5-.2,1,.6,3-1.7h1.8l.2-1.5-1.1-.3.7-1.1-.7-1.4.7-.6-.2-42.6Z"/></svg>