<svg xmlns="http://www.w3.org/2000/svg" viewBox="0 0 85 36"><path fill="inherit" d="M1,35.2v-1h-1v1h1ZM55.4,1l-1-1-1.5,1.3.6,1.1-.6.8,1,.3-.5,1.6-1.3-.2-2.7,1.4-.7-.7-2.1.3.3,2.3-1.8,1.3-.9,2.1-2,.5-1.1,3.4-1.4.7-2.2-1.3-.3-1.3-1-.6.4.7h-1.2v1c0,0-.8.4-.8.4v1.3l-1.1,1.3-2-2-2.3,1-1.1,1.7-3-2.2-1.8.5-.6-1v1.6l-.6.4-.3-1-1.3.4-1.4-.9.2,1.3-.5.7-1-.3-1.4,1.9.7,2.4-4.6,1.2-.2,1.2.6,2.4-.6.9-4.3-2.3-2.1.5-1.3,1.4.5,1.6-.2,3-1,2.2-1.7-.9-.7,1.8,15.6.8-.3-2.7,2.6.9,45.9,1.5,6.8-2.4.7-1.4,2.1-.8,2.1-3.2,3.5-2.1,4.3-3.6-1.9-.5-3-3.4-2.8-4.7.7-1.2-.2-2.5-2.5-2.1-.7-2.3-1.6.4-1.3,1.4-1.8.2-2.4-1.4-2.1,1-1.6-1.6-3.9-.9-1-2.8-1.4-1-2.2.3Z"/></svg>