<svg xmlns="http://www.w3.org/2000/svg" viewBox="0 0 71.5 64"><path fill="inherit" d="M42.3,62.2l.5.2h.5l-.4-.2s-.6,0-.6,0ZM46.4,62l-1.7.6h.2l1.1-.3.3-.2ZM49.8,62.2l-.6-.2h-.8c0,0,.7.2.7.2,0,0,.7,0,.7,0ZM51.4,61.9l-.4-.2-.4.6.8-.3ZM49.1,59.4l.2-.3h-.2v.6c0,0,0-.2,0-.2ZM55.1,59.6l1-.6-.3-.3-.7.6v.3ZM56.6,58.4h0l-.3.2v.2c0,0,.4-.3.4-.3ZM66.5,55.1h.3v-.4l-.7.6.4-.2ZM53.8,55v.4l1.4.5-.2-.5-1.3-.4ZM67.8,54.5l.2-.2.3-.6-.6.8ZM30.5,55.8l1.1-1.7-2.9-1-1.5.9,2.7,1.8h.6ZM70.1,51.8l.4-.7v-.3c0,0-.7,1.2-.7,1.2l.3-.2ZM63,50.6l-.6-.6-.2,1,.4-.5.4.5s0-.5,0-.5ZM64.3,50h0c0,0,.9.6.9.6v-.9l-.8.2ZM65.1,48.2h.6v-.3h-.6c0,0,0,.3,0,.3ZM64.4,48.3l.4-.5.3-.6-.8,1h0ZM71.4,49.8v-1.6c0,0,0-1.2,0-1.2l-.9-1,.9,1.9-.6,2.6.6-.7ZM63,45v-.2l-.2.2h.2ZM65.8,45.5l-.4-.2,1-1-2.3,1.7h1.4c0,0,.4.4.4.4l.6-.4-.6-.5ZM5.8,51.1h5.2c0,0,6.9,2.7,6.9,2.7l5.4,1,3.5-.8.5-.6-1,.2-.5-1.1.6-.5-1,.4-.4-1,.9-.2v.6l2.2-1.5h1.8v1.7c0,0,3-.5,3-.5v1.6h1.1v1.8l1.9-.4v.6l1.8.6.4-2.1h.3l-.3,2.2,2,2v1.1l-.4.2-.2-1.4h-.7c0,0,0-.6,0-.6l-1,1-.6-.3.2.8.5.6,2.9,1,.9-.6.2.8,1.8.7.6-1,.8.3-.4.7.6.2,1.4-1v.5c0,0,.4-1.7.4-1.7l.6.2-.2-1.4,1.6.3.5-1.1.9,1.8.6-1,.7,1.1.5-.5.2,2.8,1.8-1,.9-1.3h-.5l-.2-.8,1.1-.3-.5-.8.2.3v-1.5l-2.5-1.4.4-1,.6.9.4-.2,2.4,1.3,1,.2v-.5h.7l-.3.6,1,.2.2,1-1,.7h1.9l.9-.4.3,1.4h2.1l-.5.2,1.5,2.5.8-.6v-1l.3.8.3-.4-1.8,3.8,1.4-2,.6-.3v-.6l1.8,1.6-.2-.6.4-.8.3.3v-.9c0,0,.2.6.2.6l.7-1h-1c0,0,1.1-.4,1.1-.4l-.4-.6-1.5-.2.5-.6-1.2-1.2-.7.6-.4-.6-1.4-.2.5-.5h-2.6v-1c0,0-2.2-.9-2.2-.9l-1-1.7,1.9.2-1.2-1.4,3,1.2-.5-.9h-.9v-.7c0,0,.6-.5.6-.5l.6-1.1,1,1,1-.4-.5-.7.6-.8h-.9l.3-.5-.5.3-.3-.5.8-.3-1.1-.5,1.1-1.1-.7.2-.8-.5-1.2,1-.4,1.8-1,.3-.7-.8.2-.5h-1.6c0,0-.3-.9-.3-.9l.6-.6,1,.2,1-1.7-.3-.3h-.6l.5.3-.9.6v-1l-.7,1-1.3-.6-1.4,1.5-2.2.5-3.3-.9-.7-1,.4-1,3-2.8,1.8.4,1,1.4,3.3.5.5,1,1.6-.3v.4l.9-.6-.6-.4-1.5-3.5-1.8-1.9-.7-1.8,1.4-5-26.1.3,1.1-1-1-3.2,1.6-.3.4-1.9-.4-1.4,1.3-1.1,1-4.1,3.4-3v-2.1h.9c0,0,1.5-2.5,1.5-2.5l-2.5-2.6v-1.7l-1-1.4,1.4-.9-1.4-.8,1.2-2.4-1.2-.8v-.6H.3l-.3,15.9,2.8,3.4v3.2c0,0,1.4,1.1,1.4,1.1l-.3.6,1.4,1.6-.3.9,1,1.9.7.2-.2,1.4.7.9-1,.5.6,1-.6,2.2-2.3,3.8.5,1.5-.6,1.6.5,1.6-.2,3-1.1,1.4.5,1.4-.6,1-1.2.2-.2.5.6,1.3,1.8-.8,1.9-.2Z"/></svg>