<svg xmlns="http://www.w3.org/2000/svg" viewBox="0 0 104 63.2"><path fill="inherit" d="M101.5,58l-.9-.6.5,1-1.3,2.5,1.8-1.5-.7,1.5-5.7,1,5,1.2,2.9-.7-1.6-4.5ZM89,58.9l-.2-2.6-1.4,1.6,1.4,1.2.2-.2ZM84.7,54.6l-1.9.7-2.7,3.3-2.5.7,1.9,1.6,3-1.6,4.6-.2-.2-2.1-1.8-.6,1-.6-.5-1-1.2,1,.2-1.1ZM102,51.4l1.1-3.1-.5-.9-1.3,4.2.6-.2ZM76.2.5l-1.8-.5-4.2,2.6-1.9.2-1.8,2.5-3,2L7.9,4.7,0,30.7l.9,1,19.6,1.2v1l1.2-.2.2-.8,39.4.8.5,4.6.9.4.5,4.3,2.6,2.8.5-.9h1.4l1.8-2.7-2.2,4.8,1.7.6.3,5.8.6-.6-.4-.7,1.1.4.5-1.1.6,1.1-1,.8h1c0,0,2.6-.8,2.6-.8l1.4-3.9,1.8,1.5-.2-1.4,1.3-1.1,1,.5.8-1.7h.7v-2.2l1.8,1.2.2-1,.6.6-.9,1.8.2,3.9-1.1,1.9,5.3-1.2,2.5-3.1.8.9,3.8-1.3-.2,1.5,2.6-2,6.9-.6.2-4.7h-1.5l.4-2.4,1.4.6-1.9-5.4-2.2-2.7-3-1.8h-1.9l-.7,1.1,2.1,1.7.5-1.4,1.9.6,1.1,6,.8-1.8,1.4,1-1,.2.9,3.6-.9,1-6.4,2.7-2.6.4,1.5-.6-3.7-.6-2.9-1.8-.8-.8-.5-4.7-2.2-.7-2.3-2.2h1l.5-2.1,1,1.9-.7.2,1.4-.2-4.4-8.5-4.5-3.2,1,2.2-2.8.7v-1.4c0,0-1.2-.3-1.2-.3l.4-1-1.4.2-.2-1,.9-.3-1.1-.7.5-.5,1.4.5-.5-.9,1.2.9v-3c0,0,2,.2,2,.2l-.8-1.4,2.2-1.1-.4-1-1,.6.5-1,5.1-1.9,3.1-2.1-.8-2.2-1.6,1v1.4l-.6-.8-1.7-.2-.3-.7.8-.2-2.5-1.4v-1.3l1.7,1.3-1-2.5-2.2-1.8h1.5V0c0,0-1.6.4-1.6.4Z"/></svg>