<svg xmlns="http://www.w3.org/2000/svg" viewBox="0 0 92.5 48"><path fill="inherit" d="M72.6,46.2l-.8-1.4.6,1.4-1,.6.9.5.3-1ZM72.3,41.6l-.5-.9-1,.4.5.5h1ZM88.3,44.9l1.2-1,2-6-1.8,3.6-1.4,3.4ZM92,36.6l.5-2.7h-.2l-.6,3,.4-.2ZM5.4,0H.6l-.6,13.7,4.2-2.6,4.1-4.2,1.1-.4,1.7.7,3.3-3,.8-1.9.6.8-.3,1,3.5,1.3h2.2l.8-.8-.5-.5,1-.4-.6-.6,3.3-.4,1.9-1.8h.9c0,0,3.5,2.7,3.5,2.7h2.4c0,0,.3.6.3.6l-.9.5.5,1.2.4-.6.3,1.1h1l-.7,1.4,1.2.7-.2,1.7,3.8,1.6,1.9,1.4.2.9-1.1,1.4,1.3,1.9,3.7,1,.8,1.7,2.7,1.3,1.4-1.6,2.8,3-2.4,2.2.2,2.2-1.8,1-.6,1.5-1.1.5.2.7-1.3.5-.6,2.4.6,2.2,1.8-.2.9-2.1.6,1.4.9-1.8,3,5,1,.3v-.6c0,0-.7-2.5-.7-2.5l1.1,1,1.1,3.2h3.1l2.2,3,.2-.9.9.6v-1.9c0,0,1,2.7,1,2.7l2.2,1.4-.3-2.8-1.4-2.2.2-1.7h-1.6l-1-1.6-2.2-1.4-1.3-3.2-.2-3.7,1,5,4,3.9,1.4-.3-.2-1.6-2.5-3.4v-4.6l-.9-1.1,1.4-2.2h-1.1l-.2-1.1,1.4-.4-1.4-1.7,2.1.8-2.6-3.4.6-.5,1.8,2.2,1.2-.6-2.2-1.8,2,.6-.9-2.9-.6.4-2.8-2.7.9-.5,3.1,1.8.8-.8-1.2-.6-.8-1.4,1.5,1.4-.6-1.5h1.3c0,0,.8-1,.8-1l-1.5-1h1.8c0,0,.8,2.2.8,2.2l.7-.8-.5-1,.6-2.6.6,3,3-2.6-1.1-1,.8-1.8,1.8-.2,1-1-1.4,3.6,3.6-3.1-1.1,1.9,1,1.4-1.9-.4-1.7,2.2,3.6.6-5.8.2-1.1,1.3-1.9,4.3,1.1,3.2.8-2.3,2.2-.5-2.2,2.2v1.4l-1.4.2-1.6-.8-.6,3.8.6.4-.2-1.4,1.8-1.5,1.4.8v1.1l.6-.5v.6l.9.5-1.4,1.7.6.6.8-.6v1c0,0-1.4,0-1.4,0l-2.1-1.8-1.4,4.2.9-.3.6-2.6v1.8l1.2-1.4.4,2.2.6-.8.4,1.3,1-.2-.9.9,1.4-.2.3,1,1.1.6,1.4-1.5-.2,1.2-1.6,1-2.4-.7v-.9l-2.6.3.6.7-.7,1,1.8-.6.5.3-1.4,1.4-.2,1.4-.6-.9-.8.8,2.2,4.1.3-2.2,3.8,4.3v-2.1l.8-1.3.6-.3v.5c0,0-.9,1.1-.9,1.1l.9,1.6,2.2-4.3-1,3.8,1.7,1-2.2,1-.2,1.5,3-.6h.5c0,0-1.8,1.7-1.8,1.7l2.2-.6-2.9,3.4.9-.2-.2,1.7,1.7-1h2.9c0,0,.5-.7.5-.7l5-.9.6-1.6,1.6-.9.6-3.3,1.1-.5-.3.8.8-.3,1.1-2.2.4-.7-1-.3v-1.1c0,0-.9-.5-.9-.5h1.4v-.6c0,0,.5-.2.5-.2l-13,.2L76.6.5,5.4,0Z"/></svg>