<svg xmlns="http://www.w3.org/2000/svg" viewBox="0 0 44.2 66"><path fill="inherit" d="M24.4,51.8l.2-.7-1.2-.5.2.9.8.3ZM26.4,48.7l-.5-.6-.4,1.8h.9l-.4-.8.4-.3ZM31,47.5l.2-.6-1.1-1.4-1,.3-.7,1.7,1.1,1.2.5-.3-.3-.9h1.3ZM22.9,3.5l-.9-.7-.2-2.4-1.8-.4-8.2,11.3-.6,4.2-1.2,1-1.1,2.1.3,1.1-.6,1v1.4c0,0,.4.8.4.8l-1.6,1.9v1.2l-2,.9-1.4,2.2.9,1.5-.8.2-1-.6-1,2.9-1-1.8-1,.6.5,29,1.5,2.3-.2,1.2.7,1.4.4-.4.6.3,1.6-3.8,2.3-1.8-.5-.2.4-1,1.4-.5v-.8l-.9-.5.6-.2.6-1.5,2.2-1.4-.3.4.6-.3-.9,1.5,1-1.2-.6,1.5,1.3-1v-.9l.6,2.6.5-.6-.5-3.8-.5.4v-.3c0,0,1-1.2,1-1.2v4.5c0,0,.7-1.4.7-1.4l-.4.3-.2-.9,1.4-2.1-.2,1,.2.5-.2,1,.6.2v.6-2c0,0,.8-1.1.8-1.1l-.2,2.8v-1l.4,1,1.4-3.4v1.2h.9l-.3.5,1-1-.4,1.2.8-.2v-.8l1.5-.9v-1.2c0,0,1.3-2.8,1.3-2.8l-.6-1.4,2-.9v-1.4l.6.5-.7,2,.9-.6.5.5-1.2.6-.2.8.9-.2,2.2,1.3-.4-2.6.9-.2.2.3-.2-1.4h.6l.2,1.4.6-1,1,.3-.2-1.2.9.9.2-.9.2,1,.2-.6.5.3.6,2.3.9-1.2-.6-1,.6-.4.4,1.4.3-1.3v1.4c0,0,.8-2.7.8-2.7l.4-.2v1l.7-1v1.5c0,0,.6-1,.6-1l.8.6.3-1.8,1.3.6v-.8c0,0,.5,1,.5,1l.6-.6-.6-1.1.9-.2.4,1.4.2-.4h1c0,0,2.2-2.6,2.2-2.6l-1-1,.2,1-.3-.9-1,1.1-.5-1.5.9.3v-.9l.6.2.2-.5-1.4-3-1.2-.3-.6.6-1.4-1.5.3-1.8-.8-1.7.8-.7v-.8l-1.8-.4-2.3-1.4.4-3-.5-17.8-2.1-2.1-3.1-2.1-1.3,1.1-1-.4-3.9,2-.6-.6Z"/></svg>