<svg xmlns="http://www.w3.org/2000/svg" viewBox="0 0 63.7 64.8"><path fill="inherit" d="M58,60v-1.2l-.3,1.2h.3ZM33.3,27.8l.3-.2-.3-.3-.3.3.3.2ZM34.4,27v-.6l-.6-.3v.9h.6ZM35.5,23.3l-.3-.2-.2-.3.6.9v-.3ZM37.8,21.3l.3-1.9h-.6l-.6,1.6.9.3ZM44.3,19l-2.2.3.3.2-1.2,1.2v1.4l.6.9.8.2-3.4,1.4-.3,3.1-1,2.8.3-2.8-.9,2.6-.3-.8.6-4.1-2,2.9-.9-.2-1,.9-.3,1.6-1.4.9.3,3.4-2.3,3.1.9,3.1-.9,2,1.4,4.3.9-.3-.6.6.6,2.6.2,3.4-1.4,4.9-2.2,4.2-1.7,1.4h17.3v.6l11.1-.6,2.2-3.4-.3-.9.6-2.1,2-1.4v-1.7l.9-.6-.3-.6,1.4-.2v1.4l.9-.9.9-4.6-2.2-8.8-.9-1.7-1.7-1.1-2.6,1.1-1.1.8h.6l-1.2,2.3-.6-.3-1.1,1.4-2-1.1.6-3.1,1.9-.9.6-2.3,1.4-.8.3-5.1-1.4-2.2.2-.9,1.2.6-.9-2.8-4.6-2.3h-1.4l-.8-1.4-2.3-.6-1.4-1.2ZM46.6,18.7h-1.4l1.1.9h.6l-.3-.9ZM38.4,18.7l-.2-.2h-.3l.3.6.2-.3ZM47,16.7l-.6.3h.9l-.6-.3h.3ZM53.7,16.4l-1.6-1,.2.6-1.7.8,2.5.6.6-.9ZM48.9,13.9l-.3-.6-.2-.6-.2.6.8.6ZM48.6,12.7l-.2-1.1.2-.8-.5-.2-.6.8.8,1.4h.2ZM29.5,11.4l-.8-.8.3.8h.5ZM14.8,4.8l.3-.9-.9-.2h-.3v-1.2l-2.6,2.3-1.1.3-2.3,1.4-2.8.3L0,9.7l1.4.6.8,1.9,7.8,2.6,1.9,1.1,2.6.2,3.1,1.1v1.4l2.3,1.5-.6,3.4h1.7l-.6,1.9.9,1.2v-.9l4.2-5.6.9-2.6v2.6l.9-.6.9-1.4h1.7v1.2l-.6-.3-.8,1.4.8.5.8-1.6,1.2-.6.9-1.4,2.5.3.3-.6,2-.3.9-1,4,.7,2.2,1.8.6-2,.9.6.6-.3,4.6.3v-.3l-1.4-1,.2-.6-1.6-.6.5-.3-1.4-2.8-1.8.8-.6-.8-1.4.5-1.8-.5.6-3.2-4.2,1.1h-4.9l-3.9,2.9-.9-.8-.9.5-.9-1-1.6.6-1.2-.3-2-3.4-1.2-.8-2.5-.3-1.4.8,1.1-1.4-1.9,1.2-.6,1,.2-2.6-.6-.6ZM21,.6l-.8-.6-3.5.6-2.5,1.9v.9l1.4.6-.6.6.6.8,1.7-2.6,2-1.4-.6-.6,2.2-.3Z"/></svg>