<svg xmlns="http://www.w3.org/2000/svg" viewBox="0 0 56.2 64.8"><path fill="inherit" d="M14.2,5.3l-.2-1.4L0,3.4l.8,4-.4,1.3v4.3l1.8,5.9-.2,6.7.4.8-.2,3.1,1.4,5.4-.3,3.4-2.2,2.6,1.1,1.8,1.1.6.6,1-.8,20,20.8.5h21c0,0-.5-4.5-.5-4.5l-.8-1.3-2.2-.6-3.5-3.9-1.6-.4-.7-1.1-1.5-.4-1.8-1.8.5-1.8-.4-1.5.4-.7v-1.5l.6-1.7-.6-1.5h-1c0,0-.2-1.4-.2-1.4l1.7-2.3,3.1-2.1v-6.4h.5l1-1.6,4.4-3.5,5-5.6,9.1-4.5-1.7-.2-1,.3-1.6-1.3-4.5.6-1-1.7-2.8,2h-2.4l-.8-.4-.3-1-1.8-.6-.6-1.2-1.5.2-.2.9-.5.2-1-2.3-1.5-.2.4-.9-2.2-.8-2.2-.2-1.4.4-.4.6h-1.9c0,0-.9-1.1-.9-1.1l-5.4-1.1-.7-.6v-1h-1l-1-1.2-2.1,1ZM15.6,0v2.2l1-.5.3-1-.2-.6h-1.1Z"/></svg>