<svg xmlns="http://www.w3.org/2000/svg" viewBox="0 0 72.6 67.2"><path fill="inherit" d="M46.9,4.8l-3.2-3.4h-24.7L0,0v.7c0,0,.6.6.6.6l.3,2.9,1.9,1.2.6,3,3.4,2.5,1.6-.4.8,1v1.3h-1.2l-1.6,2.6,2.2,2.3.6,2.5,2.5,1-1.9,37.8,51.1,1,1.1,1.8v1.2c0,0-2.8,2.4-2.8,2.4l-.7,1.8h7.4c0,0,1.3-2.2,1.3-2.2l-1-1.7,1.6-.2-.9-1,1.2-.8-.5-2.4h.7l.3,1.4,1.1-2.5,1.8.7.9-2.6v-3.1c0,0-.6,0-.6,0l-.9-1.5-.6.2.3,1-1-.6-1.8-3,1.2-1.9-1.2-2.2v-1.8l-4.5-4-2.2-.9-2.6-2.8-.2-1.8,2.6-6.9-3.4-2-1.2,1h-.9c0,0-1-1.5-1-1.5l-.9-3.9-6.2-6.3-1-2.2-.7-4.4,1-2.9Z"/></svg>