<svg xmlns="http://www.w3.org/2000/svg" viewBox="0 0 40.8 64.8"><path fill="inherit" d="M31.1,64.7l.5-.2-.6.2h0ZM37.3,64.5h-.6c0,0,.2.2.2.2l.5-.2ZM30,64.2v-.2l-1,.3.7.4.3-.6ZM36,64.5l-1.8-.4h-.7v.2l2.5.2ZM38,.2l-21.7-.2.4,1.2-2,1.3-.4,1.3h-.9c0,0-.3,4.1-.3,4.1l-1,.6h-1l-.2,1.1h-.4l-.7,1-.8.7.7,1.3-2.5.9.6.9-.2.6.2,1-2.1,1.8.9.5-.2.8-.6.2,1.2,1.4-.8,2,.8.6.3,1.5-1,.7v1.7l1,.7-1,2.1,1,1-1.1.8.8,1-.2,1.4,2.4,2-1.5,2.3-.9.2.2,1.6-3.1,2.4-1.1,3.4-1.1,1,.5,1.1-.5,1.7-1.4.4.9,2.9-1,.6,22,.6-1.2,4.1.6,1.6,1.5,1.5,1.2,3.5h1.4l.2-.7,1.3-.8-.5-.5.4-.5,1,.9,4.3-1.3-1.3-.2.6-.4,2,1.3,1.8-.6,1.4,1.1.8-.6-1-20.6L40.8,1.4l-1-1.1s-1.8,0-1.8,0Z"/></svg>