<svg xmlns="http://www.w3.org/2000/svg" viewBox="0 0 96 36.8"><path fill="inherit" d="M69.5,35.8l-.8.5-.2.4.6.2.5-1ZM70.6,32.4l-.2.2-.3,1h.2c0,0,.4-1.1.4-1.1ZM75.8,27.8l-1.2.2-1.3,1-.6.7,1.2-1.1,1.9-.9ZM84.6,26.1l-.4-.5-.9-.2,1,.7h.2ZM82.9,25.4l-.6-.2-1.8.2-2.1.7,3-.7h1.4ZM84.8,26.5l1.4-2.3,1.9-2.4-2.1,2.2-1.2,2.5ZM88.8,21.4v-.3l1-.7h-.5l-.6,1ZM91.1,19.4l1.5-1-2.2,1.2-.4.6,1.1-.7ZM95.1,18l.5-1.5.4-3.3-.9-2.5.6,2.8-.2,3.5-2.4,1.5,2.1-.6ZM94.1,10.2l-.4-1.4h-.8c0,0,.8,1.2.8,1.2l.4.2ZM91.9,3.7l-1-3,.8,3.2,1.4,3.6h-.3c0,0,2.2,3.1,2.2,3.1l-2.2-4.5-1-2.5ZM90.6.7h-.9l.3.6h.7l-.2-.6ZM45.4,1.4l-15.9-1.4-.6,3.4-1.9.5-1.9,2.6-1.6-.7-3.8,2.5-.8-1.4-1.8,1.8-.9-.5-1.2,2.1-1.9.4-3.7,2.4-4.2.4-1.4,1.2-.7,1.9-2.4.4-.6,3.3,13.3.4,7.9-2.5,14.2,1.2v1l1.4-.6,1.5,2.2v1.6c0,0,12.3.6,12.3.6l11.9,12.4,2.1-1.2,3.7.8,1-1.5-.3-2.5.6,1.2-.2,2.2,2.1-5.1,2-1.9,1.8-.7-.7-1.2.7-.5-.6-1.4,1.2,1.4-.7.7.8.4,1.9-1.6v-1l.5,1,2.1-.7h2.2l-.9-.3,1-.6.6,1.2.2-1.5,1.2,1,2.5-3-1-.8.4.6-1.4.6v-1.8c0,0-.3,1.4-.3,1.4l-.9-.2.3.7-1-.7-1.3,1.1-2.2-1-1.4-2.2,3.4,2.1,2.4-1.8-.2-.8-1.2.2,2.1-1.4-5.3-1.9-1-1.4,5,1.7-.6-1.7,1.9-.2-1.2.6,1,1.4.7-1,.6,1.5.2-.7,2.2.7,1.4-.9,1.4-3.1.5.9,1.1-.9v-2.5l-1.3-1.9.2.6h-.8l.3.7-.7-.6-.6.5-.3,3.2-1.2-.6,1.2-.2-1-1.2h.7v-2.5l-2.5.2.2.6-1.8-.7-3.2.6.3-.7-.8-1.6.2-2.6.6.5-.3,1.4.3,1.8,1.1.6,3-1.2-1.8-1.6,2.6,1.5-.7-1.7,1.4,1.2,1.1-.5-1.4-2,3,1.9-.6-1.8,1.9,3-1.4-4.6v.8l-.6-.5v-.3l-.6-.6V.7l-44,.6Z"/></svg>