<svg xmlns="http://www.w3.org/2000/svg" viewBox="0 0 35.4 68"><path fill="inherit" d="M25.5,54.6l1.3-1.5h-1.3l-.6,1.5-1.7-.6.9.6h1.4ZM28.4,50.3l2-2.9.7-3-3.5,6.5.8-.6ZM33.4,15.6l1.3-3.5.7-2.2L18.3,0l-2,.6-1.5,1.4-1.4,4.3-2,2.2-2.2,2,1.3,3-.6,2.2h-1.3l-.8,1.4v5l2.1.7,1.5,3.5h.7l.6,1.4,5,5.8-.6.7-3.7,2-3.5,3h-.6l.6,1.4-1.3,1.4-3.8.7-2,.6-2.8,5.7.6,1.5v1.4H0v.6l3.5,4.3.6-.7.6,1.4h1.4l1.5,2.2.8,1.5,1.9-.7.9.7h2l.7,2.2-1.4,2.1v2.8l1.4-.6,2.2-1.6v-.6l2-2.1-1.3-.7h1.3l.7-2.2,2.1-2.2h-2.1l.8-.8h1.3l1.4-2v.6l-.6,1.4,3-1.4-.8-1.4h-.9v-1.5h1.7v-2.7h.6l1.3,1.4-.6-1.4,3.5-4.2v-2.2l1.4-3.5-.7-.7.7-.6-.7-.7,1.3-.6v-1.6l1,1.6-1.5,6.2h.6l1-7v-1.5l1.3-5.6v-3.6l-.6.6-3-1.4h-1.4l-1.4-.6v-2.2l1.4-2.7,1.4-2.2v1.4l2.2-1.4.7-2.1Z"/></svg>