<svg xmlns="http://www.w3.org/2000/svg" viewBox="0 0 84.2 64"><path fill="inherit" d="M60.5,62l-1.2.2-.7,1.8,1.9-1.2v-.8ZM69.4,61.6l-1,.2-2.5.6,1.8-.2,1.8-.6ZM70.4,61.8l3.9-1.8-5.4,2v.2l1.5-.3ZM79.9,54.8l-1-.2-3,2.4-5.3.3-1.1.8-2-.6.4.7-.8-.7-.4.8h-1.4c0,0-.3,1-.3,1l-.7-.9-.2,1-.2-.2v.6l-1.8.2-1.3,1.8.4,1,1.4-.3-.2-.6.8-.3.8.6-1.8.8,3.7-.5-1.4-.3,11.6-3-1,.6,9.3-4.4-2.7,1-.7-.8v.6c0,0-1.5,0-1.5,0l-1.4,1.8h-1.8l4-3.4ZM82.5,53h.2l.6-.6-1,.4.2.2ZM9.9,26.8l-1-.5v.9c0,0,.4.4.4.4l.6-.8ZM38.1,14.1h.2v-.6l-.7,1,.6-.5ZM39.7,9.8l-.6.2-.2.2,1-.2-.2-.2ZM41.4,9l-1.3.4.2.6.6-.6.5-.4ZM52.3,0l-4.1,2-4.6,3.8-1.6,3-5.2,3.4.6,1.4,1-.6.9.4-.9,1,1.5-.3-1.7,2.2-.2-.7-.6.7.8,3,.2-.2v1c0,0-1,1-1,1l-1.6-.2-3,2.6-2.3.4-.3.8-4.1-.9-2.3.6-1.7-1.4-6.5-1-7.4,1.3v2.6c0,0,1.8.8,1.8.8l-.6,1,.4,2.8-1.7.9-1.3,1.9L.2,37.2l-.2,3.8,46.9,1.8.9,1.8,1.9.8v3c0,0,.8,1.5.8,1.5l2.6,1,.5,1,8.5,5.1-.8-3.8.6-.7.6,4.2-1.4,4.4.9-1.4,1.3-.2-.2-.6,1.8-1.8-.9-1.4,2.6-1.7-.8-1,.5-11.4,2.5-9.4-.2-11.4-.4-1-1.1.7-.2-.6.6-2.5-.8-3.9,1.1-2.6.4-3-.8-2.4V.8c0,0,0-.8,0-.8h-15.2,0Z"/></svg>