<svg xmlns="http://www.w3.org/2000/svg" viewBox="0 0 55.6 67.7"><path fill="inherit" d="M55.6,26.2l-.6-22.3-10.4,4.5-4.8,3.9-3.7-.2-5.3,1.9-1.2-.2-1.7-1.4,1,1-2.3-.7-1.6.7-1.7-.6,4.5-.7-1.9-1.4-.5.9h-1.3l-1.2-1.4-4.7-1.8-16.8.2L0,52.1l1.4-.8,1.2,1.2,2.2-.4,1.9,1.5,1.2,3.3,1.7.9,1.4-.2,1.4.3,2,2.2h.9l.3-.7,1.4-.5,2.1.9.7,1,2-.2,1.6-1.7,1.7-.6,1,2.6,1.7,1,1.3,1.9,3.5-.5.6-2.4,1.5-.4-.5-2.9,2-3.6.7-.3.7.5.6,1.9.9-1.4.9.2-.2-1.6-.6-.8.9-.2v-1.2l1-1.7h1.3l.3-1.2,1.2-1h.6l.7,1,1.8-.9,4.5-3.9.4-1.7-.4-.9.9-1.7-.2-.9h.6l.2-2.6,1.6-4-.3-1,.3-1.8-.9-1.7,1.9-1h0Z"/></svg>