<svg xmlns="http://www.w3.org/2000/svg" viewBox="0 0 54.7 40"><path fill="inherit" d="M10.6.6l-.8.3h-.6C9.2.8,8.6,0,8.6,0l-1.3.4-.5-.2h-.6c0,0,.5.6.5.6l-.2.3v-.6c0,0-1.2-.6-1.2-.6l.3,1.8-.4.8v1.7c0,0,.2.9.2.9l.4-.2-.6,1,.6.7-.4.2-.2-.6-.2,1,.3.3-.6.7v1.7c0,0-.6,3-.6,3v1.8l.3.2h-.3l-.3,1.5.4.5-.3-.2-.3,1.1-.8,5.6.5-.3.4.3-.6-.2-.4.8-.9,2.4,1-1,.2,1-.5-.4-.6,1.2v-.7c0,0-.4.2-.4.2l-.6,2.7-1,1.9,1,1.8-.3,2.8.4,2.2,1,1.1,25.8.6,24.6-.4-.9-17.2.6-1.8-.2-.8.6-.6-.6-.9h-1.4c0,0-.2-1.1-.2-1.1l1-3.3,1.2-1.6v-1l2.2-5.4-.7-1.7-1.4-.6-.9-1.5-13.9.4-.6.6-3.2.2-4.2,1.8h-2.6l-1.8.9h-1.7c0,0-.9-.6-.9-.6l-3.4-.2-3,1.4-3-1-.9-3.8-1.4-1.1s-.6,0-.6,0Z"/></svg>