<svg xmlns="http://www.w3.org/2000/svg" viewBox="0 0 39.5 63.2"><path fill="inherit" d="M14.9,63l1.3-.9-1-1.9v-2.3l-1-.3v1.8l-1.4.7-.5,1.6.2.9.6.6,1.6-.2ZM24.6,40.5l1.3-1.4.7-4.2v-2.2l-1.1-.6-.9,3.7.6.6-1,1v2.6c0,0,.3.5.3.5ZM33.2,37.8l.2-7.9.8-3.8-2.6,2.2-.6,2.6-1.6,1.9v1.5l-.9,1.8.9,1.9-2.2,1.3-.3,1.5.5.3,1.4-1.2,1,.3,2-2.4,1.8.6-.2-.7ZM39.5,36.7l-.3-5.8-.6-1,.6-3.8-3.5-1.3-.7,2.3-.2,3.1.9,6-.3,1.3.8,2.5,3.4-3.2ZM25.7,8.9l-.6-8.9L2.6.4v36.1c0,0-.6,7.3-.6,7.3l-.6.3-.7,1.6-.6,5.3,4.7-.9,9.3-3.3,2.5-.2,2.6.9.6-.2,3.4-7.3v-1.4c0,0,0-3.7,0-3.7l-1.2-2.6,1.8-2.7.3-1.4-.9-2.8-1.4-.7,1.4-1.3,1.2.4,1,1,1.3-2.6-.5-.9-1.2-1.4v-5.5l1,1.9.9,3.4,1.1,1,1.4.8.5-2.4.8.4-1.3,4.7.5,1.8,1.8-.4,1.4-1.1.2-2.2-1.6-2.8-3-2.3-1.1-1.2.3-6.7-2.2-.4Z"/></svg>