<svg xmlns="http://www.w3.org/2000/svg" viewBox="0 0 76.6 61.6"><path fill="inherit" d="M64.2,42.6l.3-.7v-.3l-.3.3v.7ZM15.8.3l-.2-.3-.6.8-4,.9-1,1-5.8,1.3L.8,7.4l-.8,2.2,3,2,1.9,2.2,3,.8,2,5.5,1.8,2.3.6,1.7,4.8,3.7,1.5,3.2,1.8.7,2,2,.2,2.2,1.4,1.1-.2.9,1.2,1,.2,1,4,2.3.3,2.2,1.5,3.5v2.2l3.4,2.8,1.1,3.2-.5,2.5,1.4,2h1.2l1.8,1,1.7-4.2.2.8-.7,1.8,2.3-2-1.8-2-1.1-4.3,1.2,1,.5,2.6,1.3,1.1v-3h.4l.3,3.8,2.8-1.2.6-1.7-1.8,1.2,1.4-1.4-2.2-.6,1.8-.4-3.4-.3v-.5h2.4l-.2-.9,2.5,1.7.5-1.1.6,1,2-1.5-.9-1.3,1.4,1.1,2.7-.8-.2-.7,1.2-.2,1.2-1,.2-.7-1.7-.8h.6l-.3-1.4h.9l-.2,1,1.4.8,3.8-3.1.3-.4-.6.4-.3-.4.6-1.5,1-.5.5.9,1.7-.4.3-1,1.2-.9-.7-1,1,.6v-.8l.8.5.6-.8-1.8-2.2,1.1-2.2.6-.6-1.2,2.5.9.3.5,1.5.8-3.8,3-4.5,2.8-2.6,3-1.4-.5-.6.5-.2-17.6-17.3-18-.5v-2.6c0,0-2.4-2.9-2.4-2.9l-1.8.9-.2-1.7L15.8.3Z"/></svg>