<svg xmlns="http://www.w3.org/2000/svg" viewBox="0 0 73.9 70"><path fill="inherit" d="M52.9,63.3l1.7,4.7-1.4-7h-.2c0,0-.2.2-.2.2l.2,2.1ZM53.8,58.8l.3-.8.8-1.7-1.1,1.7-.9,2.8.9-2ZM55.6,54.7l-.6,1.6.8-1.1v-.6h-.2ZM56.6,54l1.8-.9-2,.9-.6.9.8-.9ZM59,52.4h-.4c0,0,.9-.3.9-.3l-.5.3ZM67.5,45.9h-.4v.2l-1.4,1.4,1.8-1.7ZM36.7,0h-15.9l-.9,29.7-19.9-.8.3,1.1,6.5,7,2.4,1.5,2.6,6.6,6.2,4.2,1.4.3,1.7-1.8,1-3.4,1.6-.2.5-.6,1,.4,4.2.2.6,1.4.6-.2,3.2,3,2.3,5.5,1.2,1.2,1.4,2.4,1.9,1,.4,3.6,1.4,1.7.8,2.6,1.6.2,3.9,1.8,3.1.2,1.8,1.4.2-.7,1.1-.6-.3-.4-.2.2.2-.6h-.7c0,0-1.7-4.7-1.7-4.7l.5-.5-.5-.6.6-1.8h-1.9l.7-.2-.7-1.1.9,1.1.7-.8-.3,1,.6-.2,1-2.6-1.7-1.3,2,.2,1-1.8-.7.7-.2-1,1-.6.3.7.3-.2.7-.7v-1.4c0,0,.7.8.7.8l1.3-.7h-.8c0,0,.4-.6.4-.6l-.9-1.3,1,.3-.2.7.4-.4v-.3c0,0-.2-.6-.2-.6h.2c0,0,.2.6.2.6l1-.3.3.3-.5.3,1.3-.6-1.3,1.4,2.8-1.8-1.2.4h0c0,0,3-1.5,3-1.5l1.4-1.4v-.8l1.6-1-.6-.5-.8-2,1,.2.7-.6-.3,1.5,2.1-.4v.2l-1.4.6-.2,1,3.8-2.5,1.1-.3-.5-.9,1.2-1.6-.5-3.3,1.2-3.1-2.2-3.4v-1.4l-1.4-1.2-.6-10.3-1.9.2-4.8-2.5-.6.7-1.2-.2-1.1.5-.7-.2-2.2,1.3-1.8-1-.8.3-.8-.6-1.2,1.5-.3-1.3-1.3.8-1.3-1.1-1.4.6-1-1.6-2.2.7-.5-.7-3-.5-1.3-1.4-.2.3h-1.2l-2.1-1.2V0Z"/></svg>