<svg xmlns="http://www.w3.org/2000/svg" viewBox="0 0 81.7 36"><path fill="inherit" d="M75.5,35.3l-.4.2.3.3h0v-.5h0ZM76.4,27.1v-.9l-.6,1h.6ZM77.3,25.1l.3-.7h.2l-.6.6v.2h0ZM79.9,18.6l.6-1.4-2.6.2-1,1.3.7.8-1.2.4-.2,1.6-1.1.9-.8,3.7.6,2.2.6-1,.3.6.6-3.4.9-.6-.4-.2.4-.6.5.7.6-.5,1.6-4.7h0ZM80.9,18.7l.8-1.9-1.5,2.2h.4l.3-.2h0ZM55.8,3.5l-4.6-3.5-.8,3.5-4.3,4.6-1.3-.7-2.9,5.4-2.2-.7-.2-1.2-1.1-.5-1.5,4.2-4.9,7.2.6.8-.7,1.4-1.6,1.1-.7-.6-2.2,1-1.1-.4-.2,1.1-3.5.8-1.4-1.1-2.2,1.5-3.4-2.2-.2-2.1-3.8,3-3.4,1.8-2.1,2.9-2,.4-.7,1.2-5.4,1.5,35.7,2.2h20.6l20.3-.2-.2-.6.8.6v-2.4l1.3,2.4-1.5-4.6-3.3-.4.2,1.2-.8-.4-1.5.4.6-1.2-1.8-1.1-.2-1.8-.6.4-2.3-1-.6-.7-.6.3-1.9-.4.2-.6,2.1.8.3-.6.7,1.1.8-1.1,1.3,1.7.9-.4,2.4,3,1-.4.4-1.1h-.6l.2-.6-.8-1-1.5-.4-2.7-3,.2-.2,3.4,3.3.9-.3-.7-.5.3-1.5,1.4,1.6.2-2.3-1.5-.2,1-.6-2.4-.8-4.2-5.4-1.9-1,.7-.2,1.2,1,4.4,5.4.4-.6,1.6.8-.4-2.7,1,.4v-1.1l-2.8-1.4-.7-1.6h-1.4l-2.1-.7-1.2-1.4.6-.2-.2-.7-3.2.7.7-.3-.9-.8.6.4.7-3h.6l.2-.7,1-.6v-1.9l-2.2-1.8-2.2-1,.5-1.2-1.1-1-1.7-.2-1.2,2.2-.7-.4Z"/></svg>