<svg xmlns="http://www.w3.org/2000/svg" viewBox="0 0 80.3 52"><path fill="inherit" d="M6.8,38.3l.2-.5-.3-.6-.3.9.5.2ZM19.9,28.6l.3-.5-.3-.3-.5.3.5.5ZM18.3,27.8v-1.3l.2-.5-.8,1,.6.8ZM22.8,24.4l-.3-1.4-.5.8-.2,1.8.6-1,.2.2-.4.8,1.1-.6-.6-.5ZM22.2,21.5l-.6-1.6-.3,1.6.9.5v-.5ZM20.6,14.8l-.4-.6v-.2c0,0,0,1.4,0,1.4l.4-.6ZM21.5,9.6l-.8.2-1,2.3.9,1.2h.6l.5,2.5h.8l.8,1.2.2-1.6-1.2-1-.4,1.3-.3-2.9-1.4-.6,1.2-1.2.9.3-.7-1.6ZM19,8.6l-.3-1.5-.6,1.3,1,1-.2-.7ZM20.6,7.4v-.3c0,0-.4-.6-.4-.6v.5c0,0,.4.4.4.4ZM17.5,7.7l-1-1.4-.8.2.3,1.6,1.6.6-.2-1ZM19,4.8h-.8l-.8,1,.2.7.2-.5.5.6h.6c0,0-.3-1.6-.3-1.6l.8,1.5.6-.9-1-.8ZM21.4,5.8l-.2-.5-.7-.8v.3l1,1ZM17.2.6l.2-.2h-.6v.3l.5-.2ZM76.4,0l-27.1.8-29.1-.2v.5c0,0-.6.3-.6.3l.6.3.6,2.7,1-.6.8.4.5,2.6-.2.2-1-.5.8,1.9-.8-.5v.5l-.6-.8-.7.2.2,1,.2.4.8-.5.3,1,1.4,1.1v1h-1.2v1.6c0,0,1.5,1.1,1.5,1.1l-1-1.6.2-1.1.7.2v2c0,0,1.7,1,1.7,1l-1.2,1.2-1,2.2-.4,2.1,1,.9v.5c0,0-.8,0-.8,0l.8,3.2-1,1.4-1-.8-.5,1.6-1.6,1.6-1-1-.3.5v-.5l-.5,1.6-.3-1.3-.8.8.8-1.4-1.4,1.3.6-.6h-.6l.2-.2,1-.5,1.8-3.2.3,3.4.5-2.6,1-1v.5l-.6,1.1,1.2.6.6-3.8-.5-1-1.3.8.5-.8-.6-.6v-.5c0,0,1,1.1,1,1.1l-.6-2.3.6.7.5-.8.8-.2-.6-2.3-.7-.6.4,1.9-.6-.5-1.4,2.7-1.9,1-1.8,3,.6.3,2.2-1-2.4,1.3-1-.2,3.4-5.8-.2-1.1.3.6.3-1v2.4l2-2.9-1.7-3,.2-.9-1.1.3.5,1.1-.5.7-.4-1.7-1.2.9-1.3-1.6.5-.5-1.4,1-6.7-1L.2,9l.6,1-.9,2.6.4,2.3,2.9,5.4.2,4.3,1.1,2.6v3.8l1-1.8,1,1.1,1.8.5-2.3.8v1l-1-1.1.4,2.7h2.1c0,0,1.3.9,1.3.9h-.7c0,0-.6-.4-.6-.4l-.2,1.5-.6-.4.4,1.1-.2,1.2,1,.7-.8-.2-.5.7-.8-3.8-.7,5.4,1-.5,1.5,1,1.8-.7.9.6h1.7l1.4,1.6,1.9-.4,1.4.9,1.8,2.4.6,5,4.8,1.3,5-2.2,5.4.3,1.3,1.3,2.6-.3,2.9-1.3,4.2-.2,3-1.5,3-.6,1-.8,4.9-.5,1-.7,22.2-.9-1-1.4.5-1-.5-1.4-1.1-1.6-1.8-39.2Z"/></svg>