<svg xmlns="http://www.w3.org/2000/svg" viewBox="0 0 59.4 69.2"><path fill="inherit" d="M57.6,27.2l-.9,1.4-1.2.5-.2,1.7-1,1.3v1l.6,1,1.5-1.8v-.6l1.3-1.8-.6-.6.6.2v-1.4l.6-.2-.2-.6h-.5,0ZM58.6,25.5l-.3,1h1v-.9h-.7ZM21.3,6.8l1.4-.8-.2-.5-2,1.6.7-.3h.1ZM23,4.7l.2-.3-1.3.5,1,.2v-.4h0ZM20.5,4.5l-.6-.4-.8.4-1.4,1.1-1-.4-1.9,1.4-3.7,1.1-1.7.2-1.3-1.3-1.2,1.5h-.6l-.2,8.2-.7.6h-.7l-2.9,1.6L0,21.4v1.8h1.3l.8,2.2-1.1,1.8v2.3l-.5.7.5,2.1-.7,2.5,2.2,2,1.9.4,1,1.5,1.8.6,1.6,1.4,1.3,2.6,1.5,1.4,2.5.7,1.1,1.3.4,2.7v3.7l.4,1.4,1.1.8-.8,2.2.8,5.1.8,1.2,3.2.8.5,2h29.6v-4.1l-1.3-3.4-.2-3.4,1.9-6.2-.4-3.3.9-2.3,1.4-1.4-.6-1.8,1.9-6.7-1.1-1.1-1.3.6-1.8,2.6-1.6,1.6-.6.2-.6-.5,1.9-4.8,1.9-1.1.5-1.6-1.3-1.1.4-2.7-2,.2.7-1.7v-2.7l-1-.9-2.2-.6.2-1.1-1-1-3.4-1-3-.2-2.7-1.4-9.8-2.6-1-2.5-1.5-.4-.2-.7-1.6-.2-1.8-1.4-.2.9-1.5.4,1.8-4-.5-.7h0ZM21.6,4.9v-.3l-.5-.3-.2.3.7.3ZM19.2,4.1l.2-.3-.2-.2-.3.4.3.2h0ZM24.3,3.6v-.9l-.6,1.1s.6-.2.6-.2Z"/></svg>