<svg xmlns="http://www.w3.org/2000/svg" viewBox="0 0 59.4 64"><path fill="inherit" d="M57.6,24.5l-.9,1.4-1.2.5-.2,1.7-1,1.3v1c0,0,.6,1,.6,1l1.5-1.8v-.6c0,0,1.3-1.8,1.3-1.8l-.6-.6.6.2v-1.4c0,0,.6-.2.6-.2l-.2-.6s-.5,0-.5,0ZM58.6,22.8l-.3,1h1v-.9c0,0-.7,0-.7,0ZM21.3,4.1l1.4-.8-.2-.5-2,1.6.7-.3ZM23,2l.2-.3-1.3.5,1,.2v-.4ZM20.5,1.8l-.6-.4-.8.4-1.4,1.1-1-.4-1.9,1.4-3.7,1.1-1.7.2-1.3-1.3-1.2,1.5h-.6l-.2,8.2-.7.6h-.7l-2.9,1.6-1.8,2.9v1.8h1.3c0,0,.8,2.2.8,2.2l-1.1,1.8v2.3l-.5.7.5,2.1-.7,2.5,2.2,2,1.9.4,1,1.5,1.8.6,1.6,1.4,1.3,2.6,1.5,1.4,2.5.7,1.1,1.3.4,2.7v3.7l.4,1.4,1.1.8-.8,2.2.8,5.1.8,1.2,3.2.8.5,2h29.6v-4.1c0,0-1.3-3.4-1.3-3.4l-.2-3.4,1.9-6.2-.4-3.3.9-2.3,1.4-1.4-.6-1.8,1.9-6.7-1.1-1.1-1.3.6-1.8,2.6-1.6,1.6-.6.2-.6-.5,1.9-4.8,1.9-1.1.5-1.6-1.3-1.1.4-2.7-2,.2.7-1.7v-2.7c0,0-1-.9-1-.9l-2.2-.6.2-1.1-1-1-3.4-1-3-.2-2.7-1.4-9.8-2.6-1-2.5-1.5-.4-.2-.7-1.6-.2-1.8-1.4-.2.9-1.5.4,1.8-4-.5-.7ZM21.6,2.2v-.3l-.5-.3-.2.3.7.3ZM19.2,1.4l.2-.3-.2-.2-.3.4.3.2ZM24.3.9v-.9l-.6,1.1.6-.2Z"/></svg>