<svg xmlns="http://www.w3.org/2000/svg" viewBox="0 0 73.4 65.6"><path fill="inherit" d="M47.6,17.8h-15.4l.2-17.8-2.2.7.9,2.7-.4,1.5.4,1.3-2,4.6-.3,2.8-.7.2v1l-1,1.9.6,1-.8,1.7-5.1,4.2-2.2,1-.7-1.2h-.8l-1.1,1.2-.6,1.4h-1.4l-1,1.8v1.3l-1.1.5.7,2.8-.9-.3-1.1,1.4-.6-2.2-.9-.6-.8.4-2.4,4.2.2,3.2-1.4.4-.9,2.8-3.8.3v3.4c0,0-.9,1.8-.9,1.8l2.3,3.4-.2.7,2.6,5,2.6,2.3,2.3.6-.4,1.3,2.2,3.4,2.7,1.6,1.6.2,3.1-2.6,1.8,1.8,5.4-1.4.6-1.8,1.6.9,3.2-1.8,1.3.9,2.3-1.7-.2-1,1.4-1-1.1-1.2,1.4-2.5,3.1-3.6,1.4-3.4,1.7-1.7,2.4-6.1,1.5.5.5,1.6,3.4,1.1,4.2-8.2,1.9,1,1.8-2.6h1l1.4-1.2,2.3-3.3.2-2,1.2-3.6,7.4,5.8,1.4-3.7-.2-1.8-.9-.5.6-1-.9.2-.2-1-.3.6-.3-1,.6-.2-.2-.6-1.9.3-3-2.1-1.5,1.4-2.2.3.2.5-.5.2.2.6-.4.5-3.3-.4-1-.4.2-.7-.6-.4-.5,1.3-2.2,2.2-1.4-.5-.9.2-2.6,3-3,1.9.2-9.8Z"/></svg>