<?xml version="1.0" encoding="UTF-8"?><svg id="Layer_2" xmlns="http://www.w3.org/2000/svg" viewBox="0 0 609.27 244.76"><g id="Outline"><g><path d="M74.2,9.9h-9.9v30.15h-10.24V9.9h-9.9V0h30.03V9.9Z" fill="#1a3b5a"/><path d="M115.34,0V40.04h-10.18v-15.39h-11.27v15.39h-10.24V0h10.24V14.82h11.27V0h10.18Z" fill="#1a3b5a"/><path d="M153.73,30.43v9.61h-25.74V0h25.46V9.55h-15.22v5.55h13.79v9.44h-13.79v5.89h15.5Z" fill="#1a3b5a"/></g><g><path d="M43.9,125.44c0-28.5,21.17-50.49,50.49-50.49,17.71,0,33.48,8.99,41.92,22.96l-21.44,12.31c-3.73-6.92-11.48-11.07-20.47-11.07-15.63,0-25.87,10.79-25.87,26.28s10.24,26.28,25.87,26.28c8.99,0,16.74-4.15,20.47-11.21l21.44,12.45c-8.44,13.97-24.07,22.96-41.92,22.96-29.33,0-50.49-22-50.49-50.49Z" fill="#1a3b5a"/><path d="M185.14,77.02v96.84h-24.76V77.02h24.76Z" fill="#1a3b5a"/><path d="M206.57,77.02h27.11l18.81,66.68,18.95-66.68h27.11l-31.26,96.84h-29.47l-31.26-96.84Z" fill="#1a3b5a"/><path d="M344.77,77.02v96.84h-24.76V77.02h24.76Z" fill="#1a3b5a"/><path d="M370.08,125.44c0-28.5,21.17-50.49,50.49-50.49,17.71,0,33.48,8.99,41.92,22.96l-21.44,12.31c-3.74-6.92-11.48-11.07-20.47-11.07-15.63,0-25.87,10.79-25.87,26.28s10.24,26.28,25.87,26.28c8.99,0,16.74-4.15,20.47-11.21l21.44,12.45c-8.44,13.97-24.07,22.96-41.92,22.96-29.33,0-50.49-22-50.49-50.49Z" fill="#1a3b5a"/><path d="M480.6,151.86l21.17-12.31c3.46,8.3,9.41,12.87,19.09,12.87,8.71,0,11.34-3.18,11.34-6.5,0-5.53-6.36-7.19-18.68-10.65-15.22-4.43-28.77-12.17-28.77-30.3s14.8-30.02,33.62-30.02c16.05,0,29.19,7.61,35.97,22.13l-20.75,12.17c-3.04-7.19-8.02-10.79-15.08-10.79-6.09,0-8.99,2.9-8.99,6.36,0,4.29,3.46,6.64,16.6,10.51,14.94,4.43,30.85,9.96,30.85,30.29,0,19.23-14.94,30.3-36.8,30.3s-34.45-9.82-39.56-24.07Z" fill="#1a3b5a"/></g><g><path d="M321.68,223.88c0-11.78,8.75-20.88,20.88-20.88,7.32,0,13.84,3.72,17.33,9.5l-8.87,5.09c-1.54-2.86-4.75-4.58-8.47-4.58-6.46,0-10.7,4.46-10.7,10.87s4.23,10.87,10.7,10.87c3.72,0,6.92-1.72,8.47-4.63l8.87,5.15c-3.49,5.78-9.95,9.5-17.33,9.5-12.13,0-20.88-9.09-20.88-20.88Z" fill="#1a3b5a"/><path d="M396.17,234.29v9.61h-25.74v-40.04h25.46v9.55h-15.22v5.55h13.79v9.44h-13.79v5.89h15.5Z" fill="#1a3b5a"/><path d="M438.44,203.86v40.04h-7.89l-14.13-20.14v20.14h-10.24v-40.04h7.95l14.13,20.14v-20.14h10.18Z" fill="#1a3b5a"/><path d="M478.15,213.75h-9.9v30.15h-10.24v-30.15h-9.9v-9.9h30.03v9.9Z" fill="#1a3b5a"/><path d="M514.47,234.29v9.61h-25.74v-40.04h25.46v9.55h-15.22v5.55h13.79v9.44h-13.79v5.89h15.5Z" fill="#1a3b5a"/><path d="M538.96,230.97h-3.66v12.93h-10.24v-40.04h16.02c8.12,0,14.42,5.78,14.42,13.84,0,4.92-2.69,9.1-6.81,11.38l8.24,14.82h-10.98l-6.98-12.93Zm-3.66-8.7h5.66c2.52,.06,4.29-1.77,4.29-4.46s-1.77-4.52-4.29-4.52h-5.66v8.98Z" fill="#1a3b5a"/></g></g><g id="Shapes"><g><polygon points="183.16 25.84 599.27 25.84 599.27 219.3 585.61 219.3 585.61 229.3 609.27 229.3 609.27 15.84 183.16 15.84 183.16 25.84" fill="red"/><polygon points="291.56 219.3 10 219.3 10 25.84 23.68 25.84 23.68 15.84 0 15.84 0 229.3 291.56 229.3 291.56 219.3" fill="red"/></g></g></svg>