<?xml version="1.0" encoding="UTF-8"?>
<svg id="Layer_2" xmlns="http://www.w3.org/2000/svg" version="1.1" viewBox="0 0 609.3 244.8">
  <!-- Generator: Adobe Illustrator 29.6.1, SVG Export Plug-In . SVG Version: 2.1.1 Build 9)  -->
  <defs>
    <style>
      .st0 {
        fill: #fff;
      }

      .st1 {
        fill: red;
      }
    </style>
  </defs>
  <g id="Outline">
    <g>
      <path class="st0" d="M74.2,9.9h-9.9v30.1h-10.2V9.9h-9.9V0h30v9.9h0Z"/>
      <path class="st0" d="M115.3,0v40h-10.2v-15.4h-11.3v15.4h-10.2V0h10.2v14.8h11.3V0s10.2,0,10.2,0Z"/>
      <path class="st0" d="M153.7,30.4v9.6h-25.7V0h25.5v9.6h-15.2v5.6h13.8v9.4h-13.8v5.9h15.5Z"/>
    </g>
    <g>
      <path class="st0" d="M43.9,125.4c0-28.5,21.2-50.5,50.5-50.5s33.5,9,41.9,23l-21.4,12.3c-3.7-6.9-11.5-11.1-20.5-11.1-15.6,0-25.9,10.8-25.9,26.3s10.2,26.3,25.9,26.3,16.7-4.1,20.5-11.2l21.4,12.4c-8.4,14-24.1,23-41.9,23-29.3,0-50.5-22-50.5-50.5h0Z"/>
      <path class="st0" d="M185.1,77v96.8h-24.8v-96.8h24.8Z"/>
      <path class="st0" d="M206.6,77h27.1l18.8,66.7,18.9-66.7h27.1l-31.3,96.8h-29.5l-31.3-96.8h0Z"/>
      <path class="st0" d="M344.8,77v96.8h-24.8v-96.8h24.8Z"/>
      <path class="st0" d="M370.1,125.4c0-28.5,21.2-50.5,50.5-50.5s33.5,9,41.9,23l-21.4,12.3c-3.7-6.9-11.5-11.1-20.5-11.1-15.6,0-25.9,10.8-25.9,26.3s10.2,26.3,25.9,26.3,16.7-4.1,20.5-11.2l21.4,12.4c-8.4,14-24.1,23-41.9,23-29.3,0-50.5-22-50.5-50.5h0Z"/>
      <path class="st0" d="M480.6,151.9l21.2-12.3c3.5,8.3,9.4,12.9,19.1,12.9s11.3-3.2,11.3-6.5c0-5.5-6.4-7.2-18.7-10.6-15.2-4.4-28.8-12.2-28.8-30.3s14.8-30,33.6-30,29.2,7.6,36,22.1l-20.8,12.2c-3-7.2-8-10.8-15.1-10.8s-9,2.9-9,6.4,3.5,6.6,16.6,10.5c14.9,4.4,30.8,10,30.8,30.3s-14.9,30.3-36.8,30.3-34.5-9.8-39.6-24.1h0Z"/>
    </g>
    <g>
      <path class="st0" d="M321.7,223.9c0-11.8,8.8-20.9,20.9-20.9s13.8,3.7,17.3,9.5l-8.9,5.1c-1.5-2.9-4.8-4.6-8.5-4.6-6.5,0-10.7,4.5-10.7,10.9s4.2,10.9,10.7,10.9,6.9-1.7,8.5-4.6l8.9,5.1c-3.5,5.8-10,9.5-17.3,9.5-12.1,0-20.9-9.1-20.9-20.9h0Z"/>
      <path class="st0" d="M396.2,234.3v9.6h-25.7v-40h25.5v9.6h-15.2v5.6h13.8v9.4h-13.8v5.9h15.5Z"/>
      <path class="st0" d="M438.4,203.9v40h-7.9l-14.1-20.1v20.1h-10.2v-40h8l14.1,20.1v-20.1h10.2Z"/>
      <path class="st0" d="M478.1,213.8h-9.9v30.1h-10.2v-30.1h-9.9v-9.9h30v9.9h0Z"/>
      <path class="st0" d="M514.5,234.3v9.6h-25.7v-40h25.5v9.6h-15.2v5.6h13.8v9.4h-13.8v5.9h15.5Z"/>
      <path class="st0" d="M539,231h-3.7v12.9h-10.2v-40h16c8.1,0,14.4,5.8,14.4,13.8s-2.7,9.1-6.8,11.4l8.2,14.8h-11l-7-12.9h0ZM535.3,222.3h5.7c2.5,0,4.3-1.8,4.3-4.5s-1.8-4.5-4.3-4.5h-5.7v9h0Z"/>
    </g>
  </g>
  <g id="Shapes">
    <g>
      <polygon class="st1" points="183.2 25.8 599.3 25.8 599.3 219.3 585.6 219.3 585.6 229.3 609.3 229.3 609.3 15.8 183.2 15.8 183.2 25.8"/>
      <polygon class="st1" points="291.6 219.3 10 219.3 10 25.8 23.7 25.8 23.7 15.8 0 15.8 0 229.3 291.6 229.3 291.6 219.3"/>
    </g>
  </g>
</svg>